<?xml version="1.0" encoding="UTF-8" standalone="no"?>
<!DOCTYPE svg PUBLIC "-//W3C//DTD SVG 1.1//EN" "http://www.w3.org/Graphics/SVG/1.1/DTD/svg11.dtd">
<svg width="100%" height="100%" viewBox="0 0 3341 419" version="1.1" xmlns="http://www.w3.org/2000/svg" xmlns:xlink="http://www.w3.org/1999/xlink" xml:space="preserve" xmlns:serif="http://www.serif.com/" style="fill-rule:evenodd;clip-rule:evenodd;stroke-linecap:round;stroke-linejoin:round;stroke-miterlimit:1.5;">
    <g clip-path="url(#_clip1)">
        <g id="splash" transform="matrix(0.810365,0,0,0.810365,1233.43,122.475)">
            <path d="M570.782,126.601C552.37,128.424 537.696,135.169 526.758,146.835C515.456,158.502 510.443,173.268 511.719,191.132C512.995,209.179 520.378,223.762 533.868,234.882C546.81,245.637 562.852,251.015 581.992,251.015C602.227,251.015 618.633,244.999 631.211,232.968C644.518,220.39 650.169,204.075 648.164,184.023C645.977,164.7 637.227,149.661 621.914,138.906C607.513,128.697 590.469,124.596 570.782,126.601M470.157,2.187C451.746,6.016 437.436,14.583 427.227,27.891C417.748,39.739 413.1,53.685 413.282,69.726C413.464,85.403 410.092,98.619 403.165,109.375C395.326,120.859 384.48,127.513 370.626,129.335C357.137,130.611 346.472,126.874 338.634,118.125C331.889,109.739 327.97,98.437 326.876,84.218C325.965,70.547 321.316,59.883 312.931,52.226C304.181,43.841 293.335,41.015 280.392,43.75C268.543,46.302 258.791,52.409 251.134,62.07C243.66,71.731 239.65,83.125 239.103,96.25C238.374,110.468 235.275,122.408 229.806,132.07C223.791,141.914 216.134,147.473 206.838,148.749C198.27,149.479 191.343,145.468 186.056,136.718C181.135,129.244 178.4,120.13 177.853,109.375C176.942,98.619 174.025,89.869 169.103,83.125C162.906,74.557 154.611,71.549 144.221,74.101C134.195,76.106 126.174,82.851 120.158,94.336C115.054,103.632 112.502,113.567 112.502,124.14C112.137,135.078 114.234,144.466 118.791,152.304C123.895,161.783 131.278,166.249 140.939,165.702C148.96,165.338 155.705,168.619 161.174,175.546C166.46,182.291 169.286,191.497 169.65,203.163C169.65,215.559 172.749,226.405 178.947,235.702C185.874,246.093 195.08,251.288 206.564,251.288C219.142,251.288 229.259,246.366 236.916,236.523C243.66,227.226 247.306,214.556 247.853,198.515C247.853,185.572 251.408,174.544 258.517,165.429C265.08,156.679 273.009,151.757 282.306,150.663C291.968,149.387 300.262,152.76 307.189,160.781C314.48,168.801 318.582,180.103 319.493,194.687C322.228,231.874 341.459,250.468 377.189,250.468C414.194,250.285 432.149,228.775 431.055,185.937C430.691,170.624 435.613,157.864 445.821,147.656C455.665,137.265 468.152,131.158 483.282,129.335C500.964,126.783 515.365,119.674 526.485,108.007C539.427,93.971 544.987,75.833 543.164,53.594C541.342,31.719 532.774,16.406 517.461,7.656C503.972,-0.182 488.204,-2.005 470.157,2.187" style="fill:white;fill-rule:nonzero;"/>
        </g>
        <g id="Layer_3" transform="matrix(0.408122,0,0,0.408122,842.995,64.7236)">
            <path d="M526.383,549.002L526.369,549.009C509.141,556.518 488.541,563.599 465.65,568.703C422.82,578.208 369.453,584.415 307.047,584.415C35.766,584.415 0,504.502 0,390.773C0,291.438 29.82,206.497 307.047,206.498C372.219,206.498 423.914,211.233 465.008,219.881C488.961,224.919 509.195,231.321 526.367,238.904C607.742,274.79 618.836,337.513 614.094,411.638L526.367,411.638L526.367,411.634L211.657,411.634C211.657,454.832 214.634,519.612 307.048,519.612C381.578,519.612 396.47,485.064 396.47,453.086L465.009,453.086L466.29,453.223L526.369,453.223L526.37,453.224L610.93,453.224C607.945,492.521 581.109,524.919 530.437,547.233C529.13,547.831 527.736,548.418 526.383,549.002ZM403.938,354.781C403.938,319.503 406.913,269.118 307.047,269.117C210.164,269.117 211.656,323.824 211.656,354.781L403.938,354.781Z" style="fill:white;fill-rule:nonzero;"/>
        </g>
        <g transform="matrix(0.901367,0,0,0.901367,17.8282,110.305)">
            <path d="M195.8,17.933C219.1,17.933 238,116.233 238,237.633L272,237.633C272,106.933 237.7,1.133 195.7,1.133C171.7,1.133 150.5,32.833 136.5,82.633C122.5,32.833 101.3,1.133 77.5,1.133C35.5,1.133 1.3,106.833 1.3,237.533L35.3,237.533C35.3,116.133 54,17.933 77.3,17.933C100.6,17.933 119.5,108.733 119.5,220.733L153.3,220.733C153.3,108.733 172.3,17.933 195.6,17.933" style="fill:white;fill-rule:nonzero;"/>
        </g>
        <g id="path2006" transform="matrix(1.34535,0,0,1.34535,273.025,120.753)">
            <path d="M167.224,58.56C165.115,98.976 136.728,95.83 103.006,95.676C90.191,95.623 77.085,94.792 64.417,94.792C59.742,99.534 73.276,113.916 77.084,116.296C90.081,124.393 106.389,120.917 116.852,110.404C122.473,110.404 182.806,102.518 161.922,123.366C151.814,132.36 137.513,137.672 124.51,140.746C83.138,150.53 -6.229,126.746 23.913,68.427C44.518,34.515 89.146,15.971 125.983,6.42C129.413,5.733 132.802,5.205 136.294,4.947C162.502,2.99 167.224,39.161 167.224,58.56L167.224,58.56ZM128.782,55.319C128.782,51.664 128.932,47.798 127.751,44.272C123.706,27.975 81.262,62.777 76.2,67.839C75.565,69.118 76.045,68.722 76.937,69.164C91.022,69.164 105.141,69.017 119.208,69.017C128.472,67.488 128.782,64.668 128.782,55.319L128.782,55.319Z" style="fill:white;"/>
        </g>
        <g id="Red-part" serif:id="Red part" transform="matrix(1.00365e-16,1.63908,-1.63908,1.00365e-16,732.91,108.015)">
            <path d="M68.268,123.185C63.616,123.185 61.226,120.152 61.226,120.152C57.403,119.985 27.526,120.068 27.526,120.068L24.618,95.517C24.618,95.517 6.216,82.546 4.72,81.05C-4.113,40.979 27.814,2.778 68.269,2.778C108.724,2.778 140.651,40.979 131.818,81.05C130.322,82.546 111.92,95.517 111.92,95.517L109.012,120.068C109.012,120.068 79.135,119.985 75.312,120.152C75.312,120.152 72.922,123.185 68.268,123.185ZM61.558,108.587C61.584,108.611 65.503,112.317 68.286,112.317C71.079,112.317 75.015,108.587 75.015,108.587L99.074,108.587L101.53,89.226L121.153,75.056C124.098,63.405 119.582,56.526 119.582,56.526L84.842,91.822L118.609,50.488C119.652,49.092 113.12,37.072 110.133,35.96L79.839,88.487L106.798,31.027C106.134,28.806 97.193,21.315 92.763,21.369L74.281,86.125L87.83,18.59C83.174,15.116 74.489,14.282 71.085,14.977L68.311,85.847L65.488,14.977C62.084,14.282 53.399,15.116 48.743,18.59L62.292,86.125L43.81,21.369C39.38,21.315 30.439,28.806 29.775,31.027L56.734,88.487L26.44,35.96C23.453,37.072 16.921,49.092 17.964,50.488L51.731,91.822L16.991,56.526C16.991,56.526 12.475,63.405 15.42,75.056L35.043,89.226L37.499,108.587L61.558,108.587Z" style="fill:white;"/>
        </g>
        <g transform="matrix(-0.00872713,-0.931971,0.931971,-0.00872713,752.832,318.249)">
            <path d="M23.73,70.591C17.89,70.359 13.112,68.761 9.376,65.793C8.663,65.226 6.964,63.526 6.394,62.809C4.879,60.904 3.849,59.05 3.162,56.993C1.048,50.661 2.136,42.352 6.274,33.233C9.817,25.426 15.284,17.683 24.822,6.959C26.227,5.381 30.411,0.766 30.438,0.766C30.448,0.766 30.22,1.161 29.933,1.642C27.453,5.796 25.331,10.689 24.175,14.925C22.318,21.722 22.542,27.555 24.831,32.078C26.41,35.194 29.117,37.893 32.161,39.385C37.49,41.996 45.292,42.212 54.82,40.017C55.476,39.865 87.982,31.236 127.056,20.841C166.13,10.445 198.105,1.946 198.11,1.953C198.121,1.962 107.33,40.812 60.199,60.967C52.735,64.158 50.739,64.964 47.23,66.196C38.26,69.346 30.225,70.849 23.73,70.591Z" style="fill:white;fill-rule:nonzero;"/>
        </g>
        <g transform="matrix(0.514846,0,0,0.514846,701.294,-468.445)">
            <path d="M1644.09,1143.36L1095.62,1143.36C1081.5,1143.36 1071.22,1153.63 1071.22,1167.76L1072.51,1409.16C1072.51,1409.16 940.243,1170.31 933.81,1158.76C925.675,1144.47 910.444,1135.63 894.006,1135.65L843.93,1135.65C829.806,1135.65 818.249,1147.2 818.249,1161.33L818.249,1515.76C818.249,1528.6 829.806,1540.16 843.93,1540.16L876.043,1540.16C890.167,1540.16 901.723,1528.6 901.723,1515.76L899.155,1266.63C899.155,1266.63 1032.7,1508.06 1037.84,1518.34C1045.55,1531.18 1058.38,1540.16 1077.64,1540.16L1123.87,1540.16C1137.99,1540.16 1149.55,1528.6 1149.55,1515.76L1149.55,1202.43L1644.07,1202.43C1654.33,1202.43 1662.06,1194.72 1662.06,1185.74L1662.06,1160.06C1662.08,1151.07 1654.35,1143.36 1644.09,1143.36Z" style="fill:white;"/>
        </g>
        <g transform="matrix(0.278375,0,0,0.500323,1111.61,-450.674)">
            <g>
                <path d="M2056.19,1171.61L2056.19,1188.3C2056.19,1194.72 2062.62,1201.14 2069.03,1201.14L2302.74,1201.14C2314.33,1201.14 2322.02,1192.15 2322.02,1181.88L2322.02,1152.35C2322.02,1142.08 2314.31,1133.09 2302.74,1133.09C2302.74,1133.09 2076.73,1156.2 2069.03,1156.2C2061.34,1157.49 2056.19,1163.91 2056.19,1171.61Z" style="fill:white;"/>
            </g>
        </g>
        <path d="M2117,116.237L2117,329.411L1786,329.411L1786,116.237L2117,116.237ZM2067,278L2013.54,239.37C2022.39,238.898 2033.93,234.639 2039,229C2046.9,220.206 2050,213.607 2050,203.72C2050,203.24 2050,202.76 2050,202.28C2050,192.393 2047.07,182.91 2040.08,175.919C2033.09,168.928 2018.61,165 2008.72,165L1838,165L1838,278L1921,278L1921,241L1938.32,241L1981,278L2067,278ZM1972,204.102C1972,196.866 1966.13,191 1958.9,191C1943.79,191 1921,191 1921,191L1921,217.207C1921,217.207 1943.79,217.207 1958.9,217.207C1966.13,217.207 1972,211.341 1972,204.105C1972,204.104 1972,204.103 1972,204.102Z" style="fill:white;"/>
        <g transform="matrix(9.66969,0,0,-9.66969,-2521.63,7384.29)">
            <path d="M497.56,728.726C496.713,728.77 496.316,729.781 496.316,731.006C496.316,732.353 497.186,735.271 497.531,736.652C497.881,738.045 498.031,740.298 496.771,741.59C499.116,742.534 502.013,744.588 504.466,746.608C507.022,748.714 509.097,750.782 509.561,751.513C510.471,752.948 510.651,754.773 509.391,755.685C508.141,756.597 506.091,755.407 504.881,753.665C501.551,748.863 499.541,746.519 497.271,744.545C495.501,743.005 494.641,742.98 493.791,742.862C493.791,742.862 497.061,748.215 498.281,749.822C499.746,751.744 497.941,752.462 496.191,751.248C495.836,751.001 493.069,749.088 489.717,747.358C483.747,744.278 482.31,742.858 482.31,741.01C482.31,740.19 482.88,739.158 484.08,739.158C486.42,739.158 488.734,743.34 489.867,744.381C490.307,744.791 491.33,745.681 491.727,745.681C491.857,745.681 491.947,745.601 491.947,745.351C491.947,744.551 490.394,742.281 487.987,739.681C484.495,735.911 481.637,734.391 481.637,731.981C481.637,730.411 482.817,729.561 484.093,729.561C486.783,729.561 488.583,733.151 489.659,734.931C490.089,735.641 492.462,740.064 492.962,741.021C493.482,740.744 493.802,740.167 493.632,738.995C493.312,736.885 491.432,734.329 491.432,730.765C491.432,727.855 494.122,726.942 495.202,726.94C496.2,726.94 497.52,727.325 497.848,728.324C497.888,728.474 497.838,728.727 497.572,728.744" style="fill:white;fill-rule:nonzero;"/>
        </g>
        <g transform="matrix(0.978022,0,0,0.988008,73.1868,5.15735)">
            <g id="path2405" transform="matrix(0.680636,0,0,0.680636,2870,-189.641)">
                <path d="M533.944,756.705L386.433,500.344L492.405,439.475L675.833,756.705L533.944,756.705" style="fill:white;fill-rule:nonzero;"/>
            </g>
            <g id="path2407" transform="matrix(0.680636,0,0,0.680636,2870,-189.641)">
                <path d="M141.04,720.787L247.011,659.507L303.082,756.705L161.603,756.705L141.04,720.787" style="fill:white;fill-rule:nonzero;"/>
            </g>
            <g id="path2415" transform="matrix(0.680636,0,0,0.680636,2870,-189.641)">
                <path d="M265.244,611.936L371.216,550.793L490.074,756.705L349.007,756.568L265.244,611.936" style="fill:white;fill-rule:nonzero;"/>
            </g>
        </g>
        <g id="path4386" transform="matrix(2.08296,0,0,-2.08296,2428.61,1202.49)">
            <path d="M31.174,543.518C32.166,541.139 33.553,539.154 35.338,537.369C37.025,535.682 39.107,534.295 41.486,533.303C43.767,532.311 46.248,531.815 48.924,531.815C51.603,531.815 54.084,532.311 56.365,533.303C58.744,534.295 60.728,535.682 62.51,537.369C64.197,539.154 65.584,541.139 66.576,543.518C67.568,545.799 68.064,548.276 68.064,550.955C68.064,553.631 67.568,556.111 66.576,558.393C65.584,560.772 64.197,562.756 62.51,564.444C60.728,566.229 58.744,567.615 56.365,568.608C54.084,569.6 51.603,570.096 48.924,570.096C46.248,570.096 43.767,569.6 41.486,568.608C39.107,567.615 37.025,566.229 35.338,564.444C33.553,562.756 32.166,560.772 31.174,558.393C30.181,556.111 29.685,553.631 29.685,550.955C29.685,548.276 30.181,545.799 31.174,543.518ZM10.549,420.549L87.404,420.549C89.982,420.549 92.56,421.045 94.842,422.037C97.221,423.029 99.205,424.416 100.99,426.104C102.674,427.889 104.064,429.869 105.056,432.252C106.045,434.533 106.541,437.01 106.541,439.69L106.541,481.936L18.181,481.936L18.181,493.436L106.541,493.436L106.541,501.072C106.541,503.752 106.045,506.229 105.056,508.51C104.064,510.893 102.674,512.873 100.99,514.561C99.205,516.346 97.221,517.733 94.842,518.725C92.56,519.717 89.982,520.213 87.404,520.213L10.549,520.213C7.869,520.213 5.392,519.717 3.111,518.725C0.728,517.733 -1.252,516.346 -3.037,514.561C-4.725,512.873 -6.112,510.893 -7.104,508.51C-8.096,506.229 -8.592,503.752 -8.592,501.072L-8.592,458.826L79.568,458.826L79.568,447.322L-8.592,447.322L-8.592,439.69C-8.592,437.01 -8.096,434.533 -7.104,432.252C-6.112,429.869 -4.725,427.889 -3.037,426.104C-1.252,424.416 0.728,423.029 3.111,422.037C5.392,421.045 7.869,420.549 10.549,420.549Z" style="fill:white;"/>
        </g>
        <g transform="matrix(0.992562,0,0,0.992562,25.0458,0.990019)">
            <circle cx="2814" cy="252" r="150" style="fill:none;stroke:white;stroke-width:3.15px;"/>
        </g>
        <path d="M2686.71,321.118L2814.81,107.271C2816.32,104.688 2819.02,104.436 2820.7,107.271L2946.47,312.909C2948.66,315.912 2946.64,318.327 2943.19,318.327L2771.31,318.327C2767.36,318.327 2766.35,315.744 2768.03,313.077C2768.37,312.631 2782.67,288.41 2788.73,279.139C2796.05,267.975 2800.84,264.358 2817.67,264.45C2834.41,264.543 2852.92,264.45 2852.92,264.45L2817.75,205.568C2817.75,205.568 2746.82,324.919 2722.47,365.18C2707.91,352.961 2695.73,338.009 2686.71,321.118Z" style="fill:white;"/>
    </g>
</svg>
